<svg width="31" height="30" viewBox="0 0 31 30" fill="none" xmlns="http://www.w3.org/2000/svg">
<path d="M24.4005 4.20001H5.99489C5.11469 4.20001 4.40039 4.89751 4.40039 5.75641V24.2415C4.40039 25.1016 5.11469 25.8 5.99489 25.8H24.4005C25.2813 25.8 26.0004 25.1016 26.0004 24.2415V5.75641C26.0004 4.89751 25.2813 4.20001 24.4005 4.20001ZM10.8066 22.6062H7.60139V12.2985H10.8066V22.6062ZM9.20399 10.8891C8.96003 10.8891 8.71845 10.841 8.49307 10.7476C8.26769 10.6542 8.06292 10.5174 7.89047 10.3448C7.71802 10.1722 7.58125 9.96736 7.488 9.74192C7.39475 9.51648 7.34683 9.27488 7.34699 9.03091C7.34699 8.53845 7.54262 8.06615 7.89085 7.71792C8.23908 7.36969 8.71137 7.17406 9.20384 7.17406C9.69631 7.17406 10.1686 7.36969 10.5168 7.71792C10.8651 8.06615 11.0607 8.53845 11.0607 9.03091C11.0607 9.52348 10.8651 9.99589 10.517 10.3443C10.1688 10.6928 9.69656 10.8887 9.20399 10.8891ZM22.8054 22.6062H19.6053V17.5938C19.6053 16.398 19.5819 14.8605 17.94 14.8605C16.2726 14.8605 16.0185 16.1628 16.0185 17.5071V22.6065H12.816V12.2985H15.8895V13.7061H15.9333C16.3611 12.8961 17.4063 12.0414 18.9651 12.0414C22.2069 12.0414 22.8057 14.1756 22.8057 16.9521V22.6062H22.8054Z" fill="#C1C1DA" fill-opacity="0.5"/>
</svg>
