<svg width="31" height="30" viewBox="0 0 31 30" fill="none" xmlns="http://www.w3.org/2000/svg">
<path d="M19.6502 16.869C18.6665 16.869 18.3419 17.6172 18.2432 17.9646H20.8694C20.8448 17.7717 20.7677 17.4327 20.5223 17.1855C20.3132 16.9758 20.0207 16.869 19.6502 16.869Z" fill="#C1C1DA" fill-opacity="0.5"/>
<path d="M12.8987 18.2665H10.4111V20.3866H12.7628C13.1822 20.3761 13.7018 20.2411 13.7018 19.36C13.7018 18.2971 12.9809 18.2665 12.8987 18.2665Z" fill="#C1C1DA" fill-opacity="0.5"/>
<path d="M24.111 4.22174H6.71102C6.26167 4.22186 5.82419 4.36603 5.4628 4.63309C5.10141 4.90014 4.83516 5.27602 4.70312 5.70554V24.3376C4.81367 24.6969 5.0185 25.02 5.29629 25.2733C5.57408 25.5265 5.91468 25.7007 6.28263 25.7776H24.5391C24.8965 25.7027 25.2281 25.5359 25.5014 25.2938C25.7747 25.0518 25.9803 24.7427 26.0979 24.397V5.64614C25.957 5.23097 25.6895 4.87036 25.3332 4.6149C24.9769 4.35944 24.5495 4.22196 24.111 4.22174ZM17.5809 13.3342C17.5809 13.2511 17.6487 13.1836 17.7315 13.1836H21.471C21.5532 13.1836 21.6213 13.2511 21.6213 13.3342V14.4505C21.6212 14.4904 21.6053 14.5285 21.5771 14.5566C21.549 14.5848 21.5108 14.6007 21.471 14.6008H17.7315C17.6916 14.6008 17.6534 14.585 17.6251 14.5568C17.5969 14.5287 17.581 14.4904 17.5809 14.4505V13.3342ZM15.9927 19.5259C15.9927 20.9509 15.2388 21.6382 14.6052 21.9619C13.9149 22.3156 13.1994 22.3432 12.996 22.3432H8.24913C8.20923 22.3429 8.17106 22.3269 8.14288 22.2987C8.11469 22.2704 8.09876 22.2322 8.09853 22.1923V13.1308C8.09853 13.0477 8.16693 12.9799 8.24913 12.9799H12.9654C14.6394 12.9799 15.6795 13.9621 15.6795 15.544C15.6795 16.5238 15.2022 16.9939 14.7822 17.2177C15.0157 17.2989 15.2259 17.4358 15.3945 17.6164C16.0527 18.3124 15.9963 19.4764 15.9927 19.5259ZM22.9839 19.3894C22.9794 19.4257 22.9617 19.4591 22.9342 19.4833C22.9068 19.5074 22.8714 19.5207 22.8348 19.5205H18.2949C18.3276 20.0182 18.5247 20.3773 18.8808 20.5894C19.1958 20.7763 19.5441 20.7967 19.6779 20.7967C19.7058 20.7967 19.7232 20.7955 19.7253 20.7949C20.2464 20.7949 20.6163 20.68 20.8344 20.4532C21.0435 20.2354 21.0378 19.9891 21.0363 19.9786C21.0363 19.9372 21.0501 19.8973 21.0795 19.8673C21.0935 19.8526 21.1104 19.8409 21.129 19.8329C21.1477 19.8249 21.1678 19.8208 21.1881 19.8208H22.782C22.8654 19.8208 22.9332 19.8883 22.9332 19.9717C22.9332 22.411 20.3283 22.5346 19.8045 22.5346C19.7208 22.5346 19.6731 22.5316 19.6731 22.5316H19.6716C18.4956 22.5316 17.5755 22.1887 16.9443 21.5131C15.9552 20.4529 16.0455 18.9697 16.05 18.9073C16.05 18.8806 16.0542 18.0016 16.4985 17.1097C16.9158 16.2778 17.8041 15.2854 19.6821 15.2854C20.7582 15.2854 21.5961 15.616 22.1682 16.2676C23.2209 17.4679 22.9959 19.3114 22.9839 19.3894Z" fill="#C1C1DA" fill-opacity="0.5"/>
<path d="M13.3871 15.6395C13.3871 14.8568 12.9176 14.8478 12.8981 14.8478H10.4111V16.568H12.7337C13.079 16.568 13.3871 16.4972 13.3871 15.6395Z" fill="#C1C1DA" fill-opacity="0.5"/>
</svg>
