<svg width="30" height="30" viewBox="0 0 30 30" fill="none" xmlns="http://www.w3.org/2000/svg">
<path d="M24.608 4.20001H5.3924C5.0762 4.20001 4.77296 4.32562 4.54938 4.5492C4.3258 4.77278 4.2002 5.07602 4.2002 5.39221V24.6081C4.20027 24.9243 4.32592 25.2274 4.54949 25.4509C4.77306 25.6744 5.07626 25.8 5.3924 25.8H15.7373V17.4354H12.9224V14.1756H15.7373V11.7714C15.7373 8.98141 17.4413 7.46251 19.9301 7.46251C21.1223 7.46251 22.1468 7.55101 22.4456 7.59091V10.5066L20.7194 10.5075C19.3658 10.5075 19.1039 11.1507 19.1039 12.0945V14.1759H22.3319L21.9116 17.4357H19.1039V25.8H24.6083C24.9244 25.7999 25.2276 25.6743 25.4511 25.4507C25.6746 25.2271 25.8002 24.924 25.8002 24.6078V5.39221C25.8002 5.07602 25.6746 4.77278 25.451 4.5492C25.2274 4.32562 24.9242 4.20001 24.608 4.20001Z" fill="#C1C1DA" fill-opacity="0.5"/>
</svg>