<svg width="31" height="30" viewBox="0 0 31 30" fill="none" xmlns="http://www.w3.org/2000/svg">
<path fill-rule="evenodd" clip-rule="evenodd" d="M15.5988 3.58899C9.13771 3.58899 3.89941 8.82759 3.89941 15.2896C3.89941 20.4589 7.25101 24.8443 11.9007 26.3905C12.4863 26.4988 12.6993 26.1385 12.6993 25.8274C12.6993 25.5502 12.6891 24.8149 12.684 23.8375C9.42931 24.5452 8.74261 22.2688 8.74261 22.2688C8.21041 20.9173 7.44331 20.5579 7.44331 20.5579C6.38101 19.8325 7.52401 19.8466 7.52401 19.8466C8.69821 19.9297 9.31621 21.052 9.31621 21.052C10.3596 22.84 12.0549 22.3225 12.7212 22.0249C12.8271 21.2674 13.1301 20.7529 13.464 20.4598C10.8663 20.1646 8.13511 19.1608 8.13511 14.6776C8.13511 13.3999 8.59081 12.3553 9.33901 11.5372C9.21931 11.2426 8.81701 10.0531 9.45391 8.44149C9.45391 8.44149 10.4361 8.12709 12.6717 9.64179C13.6044 9.38109 14.6055 9.25089 15.6006 9.24699C16.5942 9.25119 17.5956 9.38109 18.5295 9.64179C20.7636 8.12709 21.7443 8.44149 21.7443 8.44149C22.3827 10.0531 21.9807 11.2426 21.8607 11.5372C22.6107 12.3553 23.0631 13.3999 23.0631 14.6776C23.0631 19.1713 20.328 20.1613 17.7216 20.4499C18.141 20.8114 18.5154 21.5269 18.5154 22.6186C18.5154 24.1819 18.5013 25.4434 18.5013 25.8271C18.5013 26.1406 18.7116 26.5051 19.3056 26.389C23.9502 24.8395 27.2994 20.4574 27.2994 15.2896C27.2994 8.82759 22.0611 3.58899 15.5988 3.58899Z" fill="#C1C1DA" fill-opacity="0.5"/>
</svg>
