<svg>
  <g width="58" height="58">
    <path
      d="M31.05 17.25H27.9C26.08 17.25 24.68 17.73 23.72 18.68V18.13C23.72 17.6 23.38 17.25 22.88 17.25H22.28C21.78 17.25 21.44 17.6 21.44 18.13V45.55C21.44 46.08 21.78 46.43 22.28 46.43H22.88C23.38 46.43 23.72 46.08 23.72 45.55V38.5C24.67 39.45 26.07 39.93 27.9 39.93H31.05C32.91 39.93 34.42 39.35 35.55 38.21C36.67 37.07 37.24 35.53 37.24 33.65V23.53C37.24 21.64 36.67 20.11 35.54 18.97C34.42 17.83 32.9 17.25 31.05 17.25ZM27.99 19.44H31.05C32.33 19.44 33.28 19.79 33.96 20.51C34.63 21.23 34.97 22.26 34.97 23.57V33.6C34.97 34.93 34.64 35.93 33.96 36.66C33.29 37.38 32.34 37.73 31.05 37.73H27.99C26.68 37.73 25.67 37.39 24.87 36.7C24.1 36.03 23.72 35.08 23.72 33.81V23.36C23.72 22.08 24.09 21.13 24.87 20.46C25.65 19.79 26.7 19.44 27.99 19.44Z"
      fill="black"
    />
    <path
      d="M55.86 26.5502C53.54 26.5502 51.64 24.6602 51.64 22.3402V8.00023C51.64 3.86023 48.27 0.490234 44.13 0.490234H41.58L40.3 4.08024H44.13C45.73 4.08024 48.04 6.39024 48.04 7.99024V22.3202C48.04 24.9002 49.15 27.2202 50.92 28.8302C49.15 30.4402 48.04 32.7702 48.04 35.3402V49.6702C48.04 51.2802 45.73 53.5802 44.13 53.5802H25.11L23.83 57.1802H24.32H44.14C48.28 57.1802 51.65 53.8102 51.65 49.6702V35.3602C51.65 33.0302 53.54 31.1502 55.87 31.1502V31.1402H56.7V26.5502H55.86Z"
      fill="#B7BDC8"
    />
    <path
      d="M8.64 8.00023C8.64 6.39023 10.95 4.09023 12.55 4.09023H31.58L32.86 0.490234H32.37H12.55C8.41 0.490234 5.04 3.86023 5.04 8.00023V22.3302C5.04 24.6502 3.15 26.5502 0.82 26.5502H0V31.1402H0.83V31.1502C3.16 31.1502 5.05 33.0402 5.05 35.3702V49.7002C5.05 53.8402 8.42 57.2102 12.56 57.2102H15.11L16.39 53.6102H12.56C10.96 53.6102 8.65 51.3002 8.65 49.7002V35.3602C8.65 32.7802 7.54 30.4602 5.77 28.8502C7.54 27.2402 8.65 24.9102 8.65 22.3402V8.00023H8.64Z"
      fill="#0D54A5"
    />
  </g>
</svg>