<svg width="12" height="40" viewBox="0 0 12 40" fill="none" xmlns="http://www.w3.org/2000/svg">
<path d="M6.09309 5.2962C6.09309 4.1608 7.72214 2.53879 8.85049 2.53879H11.5585L11.0508 0H10.7052H8.85049C5.93089 0 3.5543 2.37659 3.5543 5.2962V15.402C3.5543 17.0381 2.22144 18.378 0.578279 18.378H0V21.6149H0.585331V21.622C2.22849 21.622 3.56135 22.9549 3.56135 24.598V34.7038C3.56135 37.6234 5.93794 40 8.85755 40H10.6559L11.5585 37.4612H8.85755C7.7292 37.4612 6.10014 35.8322 6.10014 34.7038V24.598C6.10014 22.7786 5.31735 21.1425 4.06911 20.007C5.31735 18.8716 6.10014 17.2285 6.10014 15.4161V5.2962H6.09309Z" fill="#B4D2F8"/>
</svg>
