<svg width="25" height="25" viewBox="0 0 25 25" fill="none" xmlns="http://www.w3.org/2000/svg">
<path d="M12.6341 2.19824C7.10415 2.19824 2.63415 6.66824 2.63415 12.1982C2.63415 17.7282 7.10415 22.1982 12.6341 22.1982C15.2863 22.1982 17.8299 21.1447 19.7052 19.2693C21.5806 17.3939 22.6341 14.8504 22.6341 12.1982C22.6341 6.66824 18.1341 2.19824 12.6341 2.19824ZM12.6341 20.1982C10.5124 20.1982 8.47758 19.3554 6.97729 17.8551C5.477 16.3548 4.63415 14.32 4.63415 12.1982C4.63415 10.0765 5.477 8.04168 6.97729 6.54139C8.47758 5.0411 10.5124 4.19824 12.6341 4.19824C14.7559 4.19824 16.7907 5.0411 18.291 6.54139C19.7913 8.04168 20.6341 10.0765 20.6341 12.1982C20.6341 14.32 19.7913 16.3548 18.291 17.8551C16.7907 19.3554 14.7559 20.1982 12.6341 20.1982ZM13.6341 10.1382L14.6941 11.1982L15.7541 10.1382L16.8141 11.1982L17.8741 10.1382L15.7541 8.01824L13.6341 10.1382ZM9.51415 10.1382L10.5741 11.1982L11.6341 10.1382L9.51415 8.01824L7.39415 10.1382L8.45415 11.1982L9.51415 10.1382ZM12.6341 17.6982C14.9641 17.6982 16.9441 16.2382 17.7441 14.1982H7.52415C8.32415 16.2382 10.3041 17.6982 12.6341 17.6982Z" fill="#1FE46E"/>
</svg>
