<svg width="24" height="25" viewBox="0 0 24 25" fill="none" xmlns="http://www.w3.org/2000/svg">
<path d="M11 10H13V8H11V10ZM12 21C7.59 21 4 17.41 4 13C4 8.59 7.59 5 12 5C16.41 5 20 8.59 20 13C20 17.41 16.41 21 12 21ZM12 3C10.6868 3 9.38642 3.25866 8.17317 3.7612C6.95991 4.26375 5.85752 5.00035 4.92893 5.92893C3.05357 7.8043 2 10.3478 2 13C2 15.6522 3.05357 18.1957 4.92893 20.0711C5.85752 20.9997 6.95991 21.7362 8.17317 22.2388C9.38642 22.7413 10.6868 23 12 23C14.6522 23 17.1957 21.9464 19.0711 20.0711C20.9464 18.1957 22 15.6522 22 13C22 11.6868 21.7413 10.3864 21.2388 9.17317C20.7362 7.95991 19.9997 6.85752 19.0711 5.92893C18.1425 5.00035 17.0401 4.26375 15.8268 3.7612C14.6136 3.25866 13.3132 3 12 3ZM11 18H13V12H11V18Z" fill="#1C7CED"/>
</svg>
