<svg width="439" height="287" viewBox="0 0 439 287" fill="none" xmlns="http://www.w3.org/2000/svg">
<path d="M357.819 286.461H350.725C349.833 286.46 348.978 286.105 348.347 285.472C347.716 284.84 347.361 283.982 347.36 283.088V223.803C347.361 222.909 347.716 222.051 348.347 221.419C348.978 220.786 349.833 220.431 350.725 220.43H357.819C358.711 220.431 359.567 220.786 360.197 221.419C360.828 222.051 361.183 222.909 361.184 223.803V283.088C361.183 283.982 360.828 284.84 360.197 285.472C359.567 286.105 358.711 286.46 357.819 286.461Z" fill="#1C7CED"/>
<path d="M372.813 286.461H365.718C364.826 286.46 363.971 286.105 363.34 285.472C362.709 284.84 362.355 283.982 362.354 283.088V223.803C362.355 222.909 362.709 222.051 363.34 221.419C363.971 220.786 364.826 220.431 365.718 220.43H372.813C373.705 220.431 374.56 220.786 375.191 221.419C375.822 222.051 376.176 222.909 376.177 223.803V283.088C376.176 283.982 375.822 284.84 375.191 285.472C374.56 286.105 373.705 286.46 372.813 286.461Z" fill="#1C7CED"/>
<path d="M375.218 242.559H347.82C346.737 242.558 345.698 242.126 344.932 241.358C344.166 240.59 343.736 239.549 343.734 238.463V230.752C343.736 229.666 344.166 228.624 344.932 227.856C345.698 227.088 346.737 226.656 347.82 226.655H375.218C376.301 226.656 377.34 227.088 378.106 227.856C378.872 228.624 379.303 229.666 379.304 230.752V238.463C379.303 239.549 378.872 240.59 378.106 241.358C377.34 242.126 376.301 242.558 375.218 242.559Z" fill="#191D24"/>
<path d="M364.089 98.8086C364.926 90.4427 370.41 82.4425 378.781 80.2652C382.866 79.1777 387.203 79.5721 391.026 81.3788C394.487 83.1293 397.208 86.0651 398.696 89.6541C400.164 93.2045 400.726 97.0658 400.331 100.889C399.884 105.067 398.554 109.101 396.429 112.723C394.158 116.737 391.206 120.325 388.106 123.719C384.949 127.176 381.376 130.356 378.719 134.238C376.362 137.68 374.467 142.355 376.789 146.317C377.7 147.769 379.008 148.928 380.558 149.654C382.108 150.38 383.834 150.643 385.53 150.41C386.361 150.284 387.165 150.016 387.907 149.619C388.726 149.181 389.455 150.428 388.635 150.867C385.525 152.532 381.658 152.155 378.72 150.283C375.334 148.125 373.822 144.316 374.457 140.38C375.18 135.891 378.302 132.038 381.299 128.807C384.43 125.432 387.709 122.21 390.609 118.624C393.473 115.083 396.031 111.174 397.564 106.857C398.852 103.249 399.281 99.3891 398.819 95.5853C398.362 91.9528 396.953 88.3535 394.426 85.6659C393.028 84.2223 391.356 83.0753 389.507 82.2933C387.659 81.5112 385.672 81.1101 383.666 81.1137C379.502 81.0603 375.464 82.5486 372.327 85.2936C369.233 88.0684 367.049 91.7177 366.064 95.7609C365.813 96.7624 365.634 97.781 365.531 98.8086C365.439 99.7257 363.996 99.7352 364.089 98.8086H364.089Z" fill="#191D24"/>
<path d="M368.677 98.4768L361.83 96.2102C361.501 96.1012 361.195 95.9281 360.932 95.7008C360.669 95.4735 360.454 95.1965 360.297 94.8856C360.141 94.5746 360.047 94.2359 360.022 93.8887C359.996 93.5415 360.039 93.1926 360.148 92.862C360.257 92.5314 360.43 92.2255 360.656 91.9619C360.883 91.6983 361.16 91.482 361.47 91.3255C361.78 91.169 362.118 91.0753 362.464 91.0497C362.81 91.0242 363.158 91.0673 363.488 91.1766L370.334 93.4433C370.665 93.552 370.97 93.725 371.233 93.9522C371.497 94.1795 371.713 94.4565 371.869 94.7676C372.026 95.0786 372.12 95.4175 372.145 95.7649C372.171 96.1124 372.128 96.4614 372.019 96.7922C371.91 97.123 371.737 97.4291 371.51 97.6928C371.283 97.9566 371.007 98.1728 370.696 98.3293C370.386 98.4858 370.048 98.5793 369.701 98.6046C369.355 98.6299 369.007 98.5865 368.677 98.4768H368.677Z" fill="#191D24"/>
<path d="M439 285.9H283.247V286.98H439V285.9Z" fill="#5D6371"/>
<path d="M233.114 187.956C228.953 187.955 224.806 187.482 220.752 186.546C218.667 186.061 216.613 185.454 214.599 184.727H214.599L214.515 184.698C211.928 183.758 209.415 182.623 206.998 181.304C206.377 180.969 205.749 180.61 205.134 180.238C204.711 179.987 204.294 179.73 203.877 179.467C195.823 174.365 189.235 167.246 184.763 158.813C180.29 150.379 178.088 140.922 178.373 131.375C178.657 121.828 181.42 112.52 186.387 104.369C191.354 96.2186 198.355 89.5073 206.699 84.8972C215.042 80.287 224.44 77.9373 233.966 78.0799C243.491 78.2225 252.815 80.8524 261.018 85.7101C269.22 90.5679 276.018 97.4857 280.74 105.781C285.463 114.077 287.947 123.463 287.947 133.015V133.014C287.922 142.441 285.49 151.704 280.884 159.921C276.277 168.138 269.649 175.036 261.63 179.958C260.689 180.533 259.719 181.085 258.664 181.644C257.229 182.405 255.764 183.098 254.303 183.706L254.032 183.823C253.527 184.032 253.022 184.232 252.512 184.422C252.279 184.512 252.035 184.605 251.791 184.693C245.819 186.855 239.517 187.959 233.167 187.956H233.114ZM214.767 183.764L214.847 183.792C216.85 184.518 218.894 185.124 220.969 185.606C224.952 186.527 229.026 186.991 233.114 186.992C233.131 186.992 233.149 186.993 233.167 186.992C239.405 186.995 245.597 185.91 251.465 183.787C251.701 183.701 251.938 183.611 252.17 183.52C252.575 183.37 252.972 183.215 253.368 183.054V183.054L253.667 182.926C255.188 182.304 256.718 181.586 258.214 180.792C259.252 180.242 260.206 179.7 261.131 179.134C269.008 174.299 275.52 167.522 280.046 159.449C284.572 151.376 286.961 142.276 286.986 133.015V133.015C286.986 123.631 284.545 114.409 279.906 106.259C275.266 98.1092 268.588 91.3127 260.529 86.5402C252.47 81.7676 243.31 79.1838 233.952 79.0437C224.593 78.9035 215.36 81.2119 207.163 85.741C198.966 90.2701 192.088 96.8635 187.208 104.871C182.328 112.878 179.614 122.023 179.334 131.403C179.054 140.783 181.217 150.074 185.611 158.359C190.005 166.645 196.477 173.639 204.39 178.652C204.798 178.909 205.208 179.162 205.627 179.411C206.232 179.776 206.846 180.128 207.456 180.456C209.807 181.74 212.251 182.846 214.767 183.764L214.767 183.764Z" fill="#B7BDC8"/>
<path d="M134.096 109.882C129.935 109.881 125.788 109.408 121.734 108.472C119.649 107.987 117.595 107.38 115.581 106.653H115.581L115.497 106.624C112.91 105.684 110.397 104.549 107.98 103.23C107.359 102.895 106.731 102.536 106.116 102.164C105.693 101.913 105.276 101.656 104.859 101.393C96.8054 96.2915 90.2173 89.1726 85.7447 80.739C81.2722 72.3055 79.0697 62.8485 79.3546 53.3011C79.6394 43.7537 82.4017 34.4457 87.3691 26.2953C92.3364 18.1448 99.3371 11.4335 107.681 6.82336C116.024 2.21323 125.422 -0.136444 134.948 0.00612191C144.473 0.148688 153.797 2.77857 162 7.63634C170.202 12.4941 177 19.4119 181.722 27.7074C186.445 36.0029 188.929 45.3894 188.929 54.9411V54.9406C188.904 64.3669 186.472 73.6298 181.865 81.847C177.259 90.0642 170.631 96.9621 162.612 101.884C161.671 102.459 160.7 103.011 159.645 103.57C158.211 104.332 156.745 105.024 155.285 105.632L155.014 105.749C154.509 105.958 154.003 106.158 153.493 106.348C153.261 106.438 153.017 106.531 152.773 106.619C146.801 108.781 140.499 109.885 134.149 109.882C134.131 109.881 134.114 109.882 134.096 109.882ZM115.749 105.69L115.829 105.718C117.832 106.445 119.876 107.051 121.951 107.532C125.934 108.453 130.008 108.918 134.096 108.918C134.114 108.918 134.131 108.919 134.149 108.918C140.387 108.921 146.579 107.837 152.447 105.713C152.683 105.627 152.92 105.537 153.152 105.447C153.557 105.296 153.954 105.141 154.35 104.98V104.98L154.649 104.853C156.17 104.23 157.7 103.512 159.196 102.718C160.234 102.168 161.187 101.626 162.112 101.061C169.99 96.2253 176.502 89.4485 181.028 81.3756C185.554 73.3027 187.943 64.2024 187.968 54.9416V54.9411C187.967 45.557 185.527 36.3352 180.888 28.1853C176.248 20.0354 169.57 13.2389 161.511 8.46639C153.452 3.69382 144.292 1.11003 134.934 0.969885C125.575 0.829736 116.342 3.13807 108.145 7.66719C99.9481 12.1963 93.0701 18.7897 88.1899 26.7971C83.3096 34.8044 80.5956 43.9491 80.3156 53.3289C80.0355 62.7088 82.1992 71.9997 86.593 80.2854C90.9869 88.5711 97.4592 95.5652 105.371 100.578C105.78 100.835 106.19 101.088 106.609 101.337C107.214 101.703 107.828 102.054 108.438 102.382C110.789 103.666 113.233 104.772 115.749 105.69V105.69Z" fill="#B7BDC8"/>
<path d="M54.785 220.727C50.6246 220.727 46.4778 220.254 42.4237 219.317C40.3388 218.833 38.2842 218.226 36.2707 217.498H36.2705L36.1862 217.47C33.5991 216.529 31.0864 215.395 28.6696 214.075C28.0486 213.741 27.4208 213.382 26.8058 213.01C26.3827 212.759 25.9656 212.502 25.5485 212.239C17.4948 207.137 10.9067 200.018 6.43421 191.585C1.96167 183.151 -0.240807 173.694 0.0440371 164.147C0.328881 154.599 3.0912 145.291 8.05852 137.141C13.0258 128.99 20.0265 122.279 28.37 117.669C36.7135 113.059 46.1115 110.709 55.6371 110.852C65.1626 110.994 74.4865 113.624 82.689 118.482C90.8915 123.34 97.6893 130.257 102.412 138.553C107.134 146.848 109.618 156.235 109.619 165.787V165.786C109.593 175.212 107.162 184.475 102.555 192.692C97.9482 200.91 91.3201 207.808 83.3018 212.729C82.3604 213.305 81.3899 213.857 80.3349 214.416C78.9006 215.177 77.4349 215.87 75.9744 216.478L75.7035 216.594C75.1982 216.804 74.6929 217.004 74.1829 217.193C73.9505 217.284 73.7064 217.376 73.4626 217.465C67.4902 219.627 61.1884 220.731 54.8387 220.727C54.8209 220.728 54.803 220.727 54.785 220.727ZM36.4383 216.536L36.5185 216.563C38.5211 217.29 40.5652 217.896 42.64 218.378C46.6233 219.298 50.6978 219.763 54.7854 219.764C54.8028 219.764 54.8197 219.764 54.8382 219.764C61.0768 219.767 67.2684 218.682 73.1363 216.558C73.3727 216.473 73.6093 216.383 73.8414 216.292C74.246 216.141 74.6434 215.987 75.0393 215.826V215.825L75.3383 215.698C76.8596 215.075 78.3895 214.358 79.8855 213.564C80.9231 213.014 81.8769 212.471 82.8019 211.906C90.6795 207.071 97.1913 200.294 101.717 192.221C106.243 184.148 108.632 175.048 108.657 165.787V165.787C108.657 156.403 106.217 147.181 101.577 139.031C96.9374 130.881 90.2589 124.085 82.2004 119.312C74.1418 114.539 64.9816 111.956 55.6232 111.815C46.2649 111.675 37.0318 113.984 28.8346 118.513C20.6375 123.042 13.7596 129.635 8.87932 137.643C3.99905 145.65 1.28504 154.795 1.00502 164.174C0.724996 173.554 2.88863 182.845 7.28249 191.131C11.6763 199.417 18.1486 206.411 26.0609 211.423C26.4698 211.681 26.8793 211.933 27.2987 212.182C27.9038 212.548 28.5178 212.899 29.1273 213.228C31.4787 214.511 33.9225 215.617 36.4383 216.536V216.536Z" fill="#B7BDC8"/>
<path d="M84.7303 127.152C88.9349 127.152 92.3434 123.735 92.3434 119.519C92.3434 115.303 88.9349 111.886 84.7303 111.886C80.5257 111.886 77.1172 115.303 77.1172 119.519C77.1172 123.735 80.5257 127.152 84.7303 127.152Z" fill="#E8EAEE"/>
<path d="M167.406 20.6442C171.61 20.6442 175.019 17.2267 175.019 13.011C175.019 8.79531 171.61 5.37782 167.406 5.37782C163.201 5.37782 159.792 8.79531 159.792 13.011C159.792 17.2267 163.201 20.6442 167.406 20.6442Z" fill="#E8EAEE"/>
<path d="M275.076 108.839C279.281 108.839 282.689 105.421 282.689 101.205C282.689 96.9898 279.281 93.5723 275.076 93.5723C270.871 93.5723 267.463 96.9898 267.463 101.205C267.463 105.421 270.871 108.839 275.076 108.839Z" fill="#E8EAEE"/>
<path d="M361.873 150.398C376.08 150.398 387.598 138.85 387.598 124.605C387.598 110.36 376.08 98.8121 361.873 98.8121C347.665 98.8121 336.147 110.36 336.147 124.605C336.147 138.85 347.665 150.398 361.873 150.398Z" fill="#1C7CED"/>
<path d="M294.859 205.701C294.507 205.701 294.157 205.645 293.822 205.537C293.401 205.402 293.011 205.184 292.674 204.897C292.337 204.61 292.061 204.258 291.861 203.863L288.628 197.531C288.427 197.137 288.305 196.706 288.27 196.265C288.234 195.823 288.286 195.379 288.422 194.957C288.558 194.536 288.775 194.145 289.061 193.808C289.348 193.47 289.698 193.193 290.091 192.991L342.726 165.98C343.52 165.572 344.444 165.498 345.293 165.773C346.142 166.048 346.848 166.65 347.254 167.446L350.487 173.778C350.893 174.575 350.967 175.5 350.693 176.352C350.419 177.203 349.819 177.91 349.025 178.318L296.389 205.329C295.916 205.574 295.391 205.701 294.859 205.701Z" fill="#1C7CED"/>
<path d="M383.87 231.475H340.129C339.046 231.473 338.007 231.041 337.241 230.273C336.476 229.505 336.045 228.464 336.043 227.378V181.353C336.043 174.451 338.778 167.831 343.646 162.951C348.514 158.07 355.116 155.328 362 155.328C368.884 155.328 375.486 158.07 380.354 162.951C385.221 167.831 387.956 174.451 387.956 181.353V227.378C387.955 228.464 387.524 229.505 386.758 230.273C385.992 231.041 384.953 231.473 383.87 231.475Z" fill="#E8EAEE"/>
<path d="M367.125 226.473C367.092 226.473 367.058 226.472 367.025 226.471L359.933 226.265C359.041 226.239 358.196 225.859 357.584 225.208C356.971 224.558 356.642 223.69 356.667 222.795L358.379 163.535C358.391 163.092 358.49 162.656 358.671 162.252C358.852 161.847 359.111 161.483 359.433 161.18C359.498 161.117 359.566 161.059 359.635 161.003C360.259 160.5 361.041 160.237 361.84 160.261L368.932 160.467C369.823 160.494 370.668 160.874 371.28 161.525C371.892 162.175 372.222 163.043 372.198 163.937L370.486 223.197C370.459 224.074 370.094 224.906 369.467 225.517C368.839 226.128 368 226.471 367.125 226.473Z" fill="#1C7CED"/>
<path d="M360.266 158.965C360.844 158.497 361.571 158.252 362.314 158.276L369.405 158.482C370.233 158.507 371.017 158.86 371.586 159.464C372.154 160.068 372.461 160.874 372.438 161.704L374.091 189.157C374.066 189.987 373.713 190.773 373.111 191.343C372.508 191.913 371.705 192.22 370.877 192.197L370.877 192.197L357.537 191.991C357.126 191.979 356.723 191.886 356.348 191.718C355.974 191.549 355.636 191.309 355.355 191.01C355.073 190.71 354.853 190.358 354.707 189.974C354.561 189.59 354.492 189.18 354.504 188.769L357.433 161.835C357.457 160.998 359.472 159.703 360.079 159.129C360.139 159.071 360.202 159.017 360.266 158.965Z" fill="#E8EAEE"/>
<path d="M350.292 163.865C350.979 164.15 351.541 164.673 351.876 165.338L355.088 171.68C355.462 172.421 355.527 173.281 355.27 174.07C355.013 174.86 354.454 175.515 353.716 175.892L330.462 190.48C329.723 190.855 328.866 190.921 328.079 190.663C327.291 190.405 326.638 189.845 326.262 189.104L326.262 189.104L320.061 177.26C319.875 176.893 319.764 176.493 319.732 176.083C319.7 175.673 319.75 175.261 319.877 174.869C320.004 174.478 320.207 174.116 320.474 173.804C320.741 173.492 321.067 173.235 321.433 173.049L347.675 163.963C348.041 163.776 348.44 163.663 348.849 163.631C349.258 163.599 349.67 163.649 350.06 163.778C350.139 163.804 350.216 163.833 350.292 163.865Z" fill="#E8EAEE"/>
<path d="M353.278 130.907C351.689 130.863 349.711 130.807 348.188 129.691C347.734 129.345 347.361 128.904 347.096 128.399C346.83 127.893 346.678 127.336 346.65 126.765C346.622 126.36 346.688 125.953 346.843 125.577C346.999 125.201 347.238 124.867 347.544 124.599C348.34 123.925 349.502 123.767 350.754 124.136L349.457 114.629L350.409 114.498L351.934 125.675L351.139 125.309C350.217 124.885 348.951 124.669 348.164 125.335C347.971 125.51 347.821 125.726 347.725 125.968C347.629 126.21 347.59 126.471 347.611 126.731C347.634 127.156 347.748 127.57 347.946 127.947C348.143 128.323 348.419 128.653 348.755 128.913C349.94 129.781 351.517 129.894 353.305 129.943L353.278 130.907Z" fill="#191D24"/>
<path d="M344.747 115.45H339.569V116.413H344.747V115.45Z" fill="#191D24"/>
<path d="M361.089 115.45H355.912V116.413H361.089V115.45Z" fill="#191D24"/>
<path d="M231.33 162.838C245.538 162.838 257.055 151.29 257.055 137.045C257.055 122.8 245.538 111.253 231.33 111.253C217.122 111.253 205.605 122.8 205.605 137.045C205.605 151.29 217.122 162.838 231.33 162.838Z" fill="#F59E05"/>
<path d="M219.659 123.158C216.657 122.448 213.415 121.492 211.273 119.122C209.45 117.104 208.595 113.99 210.211 111.598C211.686 109.414 214.596 108.612 217.045 108.203C219.891 107.727 222.817 107.657 225.488 106.442C226.8 105.848 227.944 104.937 228.82 103.792C229.633 102.647 230.339 101.429 230.928 100.154C231.487 98.9115 232.233 97.7624 233.14 96.7475C234.172 95.7342 235.503 95.0826 236.935 94.8899C240.158 94.3988 243.217 95.8921 245.753 97.7464C248.209 99.5775 250.436 101.697 252.389 104.06C256.822 109.357 259.873 115.675 261.269 122.447C261.457 123.357 262.847 122.972 262.66 122.062C261.325 115.654 258.552 109.634 254.552 104.46C252.57 101.88 250.295 99.5421 247.771 97.4931C245.158 95.3826 242.141 93.5432 238.704 93.3689C237.115 93.2761 235.528 93.592 234.095 94.2866C232.778 94.9826 231.669 96.0178 230.883 97.2856C229.264 99.7479 228.483 102.93 225.87 104.595C223.224 106.283 219.911 106.299 216.909 106.769C214.239 107.186 211.267 108.068 209.459 110.218C207.46 112.596 207.535 115.836 209.028 118.459C210.688 121.373 213.77 122.963 216.866 123.912C217.661 124.155 218.467 124.36 219.276 124.552C220.178 124.765 220.564 123.371 219.659 123.158V123.158Z" fill="#191D24"/>
<path d="M230.232 145.657L230.205 144.693C231.994 144.643 233.57 144.531 234.755 143.663C235.091 143.403 235.367 143.074 235.565 142.697C235.762 142.32 235.876 141.906 235.9 141.481C235.92 141.221 235.881 140.96 235.785 140.718C235.689 140.476 235.539 140.26 235.346 140.086C234.559 139.42 233.294 139.635 232.371 140.059L231.576 140.425L233.101 129.249L234.053 129.38L232.756 138.887C234.009 138.517 235.171 138.676 235.966 139.35C236.271 139.617 236.511 139.952 236.666 140.327C236.821 140.703 236.888 141.109 236.86 141.515C236.832 142.085 236.68 142.643 236.414 143.149C236.149 143.654 235.776 144.096 235.322 144.442C233.8 145.557 231.821 145.613 230.232 145.657Z" fill="#191D24"/>
<path d="M243.941 130.2H238.764V131.163H243.941V130.2Z" fill="#191D24"/>
<path d="M227.598 130.2H222.421V131.163H227.598V130.2Z" fill="#191D24"/>
<path d="M53.9629 195.61C68.1705 195.61 79.688 184.062 79.688 169.817C79.688 155.572 68.1705 144.024 53.9629 144.024C39.7553 144.024 28.2378 155.572 28.2378 169.817C28.2378 184.062 39.7553 195.61 53.9629 195.61Z" fill="#F59E05"/>
<path d="M52.8646 178.429L52.8379 177.465C54.6263 177.415 56.2031 177.303 57.3878 176.435C57.7237 176.175 57.9998 175.845 58.1973 175.469C58.3948 175.092 58.5091 174.677 58.5325 174.252C58.5533 173.993 58.5141 173.732 58.418 173.49C58.3219 173.248 58.1714 173.032 57.9783 172.857C57.1918 172.192 55.9264 172.407 55.0039 172.831L54.2085 173.197L55.7339 162.021L56.6863 162.151L55.3889 171.658C56.6422 171.289 57.8035 171.448 58.5989 172.121C58.9043 172.389 59.1439 172.723 59.299 173.099C59.4542 173.474 59.5206 173.881 59.4931 174.286C59.465 174.857 59.3128 175.415 59.0471 175.921C58.7814 176.426 58.4086 176.867 57.9549 177.213C56.4326 178.329 54.4543 178.384 52.8646 178.429Z" fill="#191D24"/>
<path d="M66.574 162.971H61.3965V163.935H66.574V162.971Z" fill="#191D24"/>
<path d="M50.2313 162.971H45.0537V163.935H50.2313V162.971Z" fill="#191D24"/>
<path d="M134.715 84.0186C148.923 84.0186 160.44 72.4707 160.44 58.2257C160.44 43.9806 148.923 32.4328 134.715 32.4328C120.508 32.4328 108.99 43.9806 108.99 58.2257C108.99 72.4707 120.508 84.0186 134.715 84.0186Z" fill="#E8EAEE"/>
<path d="M152.897 67.7642L152.87 66.8004C154.659 66.7505 156.235 66.638 157.42 65.7701C157.756 65.5101 158.032 65.1806 158.23 64.804C158.427 64.4274 158.541 64.0126 158.565 63.5878C158.586 63.3282 158.546 63.0673 158.45 62.8253C158.354 62.5834 158.204 62.3669 158.011 62.1928C157.224 61.5264 155.959 61.7419 155.036 62.1664L154.241 62.5321L155.766 51.3558L156.719 51.4866L155.421 60.9936C156.675 60.6241 157.836 60.7827 158.631 61.4567C158.937 61.724 159.176 62.0585 159.331 62.4341C159.486 62.8097 159.553 63.2161 159.525 63.6217C159.497 64.1925 159.345 64.7502 159.079 65.2558C158.814 65.7614 158.441 66.2026 157.987 66.5486C156.465 67.664 154.487 67.7195 152.897 67.7642Z" fill="#191D24"/>
<path d="M150.263 52.3065H145.086V53.2704H150.263V52.3065Z" fill="#191D24"/>
<path d="M149.921 30.9128C148.96 25.1702 145.332 20.2335 140.664 16.9009C136.088 13.6917 130.617 12.0147 125.033 12.1095C114.221 12.2288 103.65 18.3003 97.8531 27.411C91.4312 37.5044 91.3045 50.685 95.6458 61.598C96.7557 64.4092 98.1628 67.093 99.843 69.6036C101.707 72.3722 103.964 74.8146 106.16 77.3151C110.252 81.9751 114.944 88.4559 112.201 94.9581C111.189 97.3598 109.052 99.5433 106.333 99.7153C104.038 99.8605 101.493 98.7598 100.475 96.5965C99.3346 94.173 100.913 91.3046 103.246 90.3127C105.692 89.2723 108.234 90.8071 109.138 93.1677C109.587 94.2546 109.602 95.4729 109.18 96.5707C109.09 96.7377 109.067 96.9328 109.115 97.1164C109.163 97.3 109.279 97.4585 109.439 97.5598C109.605 97.6554 109.801 97.6818 109.985 97.6332C110.17 97.5847 110.328 97.4651 110.426 97.3004C110.911 96.0839 111.016 94.7483 110.728 93.4704C110.439 92.1925 109.77 91.0327 108.809 90.1445C107.834 89.2081 106.56 88.6484 105.212 88.5649C103.865 88.4813 102.531 88.8794 101.449 89.6883C99.1628 91.3624 97.954 94.3591 99.1125 97.0631C100.116 99.4044 102.543 100.818 104.993 101.117C106.345 101.25 107.709 101.031 108.951 100.479C110.193 99.9279 111.272 99.0633 112.082 97.9699C113.89 95.5967 114.709 92.613 114.367 89.6466C113.565 82.247 107.669 77.188 103.242 71.7728C99.3063 66.9205 96.5325 61.2278 95.1341 55.1324C93.703 49.1413 93.7564 42.8901 95.2894 36.9244C96.7763 31.2679 99.8324 26.1501 104.103 22.1647C108.202 18.3561 113.208 15.6669 118.641 14.3547C124.012 13.0139 129.665 13.3588 134.835 15.3427C140.253 17.498 145.062 21.7626 147.354 27.1929C147.905 28.5102 148.299 29.8877 148.531 31.2972C148.684 32.2128 150.074 31.8244 149.921 30.9128H149.921Z" fill="#191D24"/>
<path d="M149.89 31.1306C152.297 28.8049 156.222 28.4696 159.123 30.0449C162.123 31.6743 163.327 35.1836 162.558 38.431C162.163 40.2449 161.117 41.8503 159.62 42.9428C158.864 43.4707 159.584 44.7246 160.348 44.1912C163.594 41.9259 164.961 37.5601 163.853 33.7835C162.696 29.8403 158.855 27.4863 154.843 27.6434C152.618 27.7025 150.492 28.5798 148.87 30.1083C148.2 30.7551 149.221 31.7766 149.89 31.1306Z" fill="#191D24"/>
<path d="M60.514 153.522C63.6168 153.232 66.2146 151.172 67.5921 148.415C68.2955 146.988 68.6646 145.419 68.6713 143.828C68.678 142.236 68.322 140.664 67.6305 139.231C66.1684 136.227 63.7288 133.811 60.714 132.384C57.2075 130.681 53.2475 130.209 49.3903 130.366C42.1218 130.66 34.114 132.706 29.6459 138.92C27.544 141.738 26.6306 145.271 27.1025 148.758C27.6679 152.417 29.8893 155.586 32.261 158.318C34.7468 161.181 37.6152 163.76 39.5798 167.039C41.2797 169.877 42.1942 173.451 41.057 176.671C40.7859 177.435 40.3834 178.145 39.8678 178.769C39.2799 179.48 40.2946 180.508 40.8875 179.791C42.9331 177.316 43.3467 174.049 42.7025 170.969C41.9933 167.578 39.9475 164.712 37.7104 162.151C33.3575 157.169 26.8746 151.728 28.7042 144.284C29.5633 141.058 31.5182 138.233 34.2318 136.297C37.1414 134.182 40.596 133.018 44.1064 132.386C50.8239 131.177 58.9587 131.303 64.034 136.551C66.1433 138.732 67.5941 141.78 67.2056 144.873C66.8552 147.662 65.0791 150.397 62.4823 151.56C61.8585 151.838 61.1937 152.012 60.514 152.076C59.5978 152.161 59.5889 153.608 60.514 153.522H60.514Z" fill="#191D24"/>
</svg>
