<svg width="138" height="52" viewBox="0 0 138 52" fill="none" xmlns="http://www.w3.org/2000/svg">
<path d="M0 4C0 1.79086 1.79086 0 4 0H134C136.209 0 138 1.79086 138 4V48C138 50.2091 136.209 52 134 52H4C1.79086 52 0 50.2091 0 48V4Z" fill="#1C7CED"/>
<path d="M29.967 30.715C30.392 30.715 30.749 30.664 31.038 30.562C31.327 30.46 31.5565 30.324 31.7265 30.154C31.9022 29.984 32.0268 29.7857 32.1005 29.559C32.1798 29.3323 32.2195 29.0915 32.2195 28.8365C32.2195 28.5702 32.177 28.3322 32.092 28.1225C32.007 27.9072 31.8738 27.7258 31.6925 27.5785C31.5112 27.4255 31.276 27.3093 30.987 27.23C30.7037 27.1507 30.3608 27.111 29.9585 27.111H27.655V30.715H29.967ZM27.655 21.977V25.53H29.474C30.256 25.53 30.8453 25.3883 31.242 25.105C31.6443 24.8217 31.8455 24.3712 31.8455 23.7535C31.8455 23.1132 31.6642 22.657 31.3015 22.385C30.9388 22.113 30.3722 21.977 29.6015 21.977H27.655ZM29.6015 20.209C30.4062 20.209 31.0947 20.2855 31.667 20.4385C32.2393 20.5915 32.7068 20.8097 33.0695 21.093C33.4378 21.3763 33.707 21.7192 33.877 22.1215C34.047 22.5238 34.132 22.9772 34.132 23.4815C34.132 23.7705 34.0895 24.0482 34.0045 24.3145C33.9195 24.5752 33.7863 24.8217 33.605 25.054C33.4293 25.2807 33.2027 25.4875 32.925 25.6745C32.653 25.8615 32.3272 26.0202 31.9475 26.1505C33.6362 26.5302 34.4805 27.4425 34.4805 28.8875C34.4805 29.4088 34.3813 29.8905 34.183 30.3325C33.9847 30.7745 33.6957 31.157 33.316 31.48C32.9363 31.7973 32.4688 32.0467 31.9135 32.228C31.3582 32.4093 30.7235 32.5 30.0095 32.5H25.3685V20.209H29.6015ZM43.591 23.779V32.5H42.3075C42.0299 32.5 41.8542 32.3725 41.7805 32.1175L41.636 31.4205C41.279 31.7832 40.8852 32.0778 40.4545 32.3045C40.0239 32.5255 39.5167 32.636 38.933 32.636C38.457 32.636 38.0349 32.5567 37.6665 32.398C37.3039 32.2337 36.9979 32.0042 36.7485 31.7095C36.4992 31.4148 36.3094 31.0663 36.179 30.664C36.0544 30.256 35.992 29.8083 35.992 29.321V23.779H38.0915V29.321C38.0915 29.8537 38.2134 30.2673 38.457 30.562C38.7064 30.851 39.0775 30.9955 39.5705 30.9955C39.9332 30.9955 40.2732 30.9162 40.5905 30.7575C40.9079 30.5932 41.2082 30.3693 41.4915 30.086V23.779H43.591ZM48.5797 32.636C47.8204 32.636 47.2367 32.4235 46.8287 31.9985C46.4264 31.5678 46.2252 30.9757 46.2252 30.222V25.3515H45.3327C45.2194 25.3515 45.1231 25.3147 45.0437 25.241C44.9644 25.1673 44.9247 25.0568 44.9247 24.9095V24.0765L46.3272 23.847L46.7692 21.467C46.7976 21.3537 46.8514 21.2658 46.9307 21.2035C47.0101 21.1412 47.1121 21.11 47.2367 21.11H48.3247V23.8555H51.9542L52.4047 21.467C52.4331 21.3537 52.4841 21.2658 52.5577 21.2035C52.6371 21.1412 52.7419 21.11 52.8722 21.11H53.9517V23.8555H56.2807V25.3515H53.9517V30.0775C53.9517 30.3495 54.0197 30.562 54.1557 30.715C54.2917 30.868 54.4759 30.9445 54.7082 30.9445C54.8329 30.9445 54.9406 30.9303 55.0312 30.902C55.1219 30.868 55.1984 30.834 55.2607 30.8C55.3287 30.766 55.3882 30.7348 55.4392 30.7065C55.4902 30.6725 55.5412 30.6555 55.5922 30.6555C55.6546 30.6555 55.7056 30.6725 55.7452 30.7065C55.7849 30.7348 55.8274 30.7802 55.8727 30.8425L56.5017 31.8625C56.1957 32.1175 55.8444 32.3102 55.4477 32.4405C55.0511 32.5708 54.6402 32.636 54.2152 32.636C53.4559 32.636 52.8722 32.4235 52.4642 31.9985C52.0562 31.5678 51.8522 30.9757 51.8522 30.222V25.3515H48.3247V30.0775C48.3247 30.3495 48.3899 30.562 48.5202 30.715C48.6562 30.868 48.8404 30.9445 49.0727 30.9445C49.2031 30.9445 49.3107 30.9303 49.3957 30.902C49.4864 30.868 49.5629 30.834 49.6252 30.8C49.6932 30.766 49.7527 30.7348 49.8037 30.7065C49.8547 30.6725 49.9057 30.6555 49.9567 30.6555C50.0191 30.6555 50.0701 30.6725 50.1097 30.7065C50.1494 30.7348 50.1919 30.7802 50.2372 30.8425L50.8662 31.8625C50.5602 32.1175 50.2089 32.3102 49.8122 32.4405C49.4156 32.5708 49.0047 32.636 48.5797 32.636ZM61.4185 23.643C62.0645 23.643 62.651 23.7478 63.178 23.9575C63.7106 24.1672 64.164 24.4647 64.538 24.85C64.9176 25.2353 65.2095 25.7057 65.4135 26.261C65.6175 26.8163 65.7195 27.4368 65.7195 28.1225C65.7195 28.8138 65.6175 29.4372 65.4135 29.9925C65.2095 30.5478 64.9176 31.021 64.538 31.412C64.164 31.803 63.7106 32.1033 63.178 32.313C62.651 32.5227 62.0645 32.6275 61.4185 32.6275C60.7668 32.6275 60.1746 32.5227 59.642 32.313C59.1093 32.1033 58.6531 31.803 58.2735 31.412C57.8995 31.021 57.6076 30.5478 57.398 29.9925C57.194 29.4372 57.092 28.8138 57.092 28.1225C57.092 27.4368 57.194 26.8163 57.398 26.261C57.6076 25.7057 57.8995 25.2353 58.2735 24.85C58.6531 24.4647 59.1093 24.1672 59.642 23.9575C60.1746 23.7478 60.7668 23.643 61.4185 23.643ZM61.4185 31.0125C62.1438 31.0125 62.6793 30.7688 63.025 30.2815C63.3763 29.7942 63.552 29.0802 63.552 28.1395C63.552 27.1988 63.3763 26.482 63.025 25.989C62.6793 25.496 62.1438 25.2495 61.4185 25.2495C60.6818 25.2495 60.135 25.4988 59.778 25.9975C59.4266 26.4905 59.251 27.2045 59.251 28.1395C59.251 29.0745 59.4266 29.7885 59.778 30.2815C60.135 30.7688 60.6818 31.0125 61.4185 31.0125ZM69.2847 24.85C69.4603 24.6743 69.6445 24.5128 69.8372 24.3655C70.0355 24.2125 70.2423 24.085 70.4577 23.983C70.6787 23.8753 70.9138 23.7932 71.1632 23.7365C71.4125 23.6742 71.6845 23.643 71.9792 23.643C72.4552 23.643 72.8773 23.7252 73.2457 23.8895C73.614 24.0482 73.92 24.2748 74.1637 24.5695C74.413 24.8585 74.6 25.207 74.7247 25.615C74.855 26.0173 74.9202 26.4622 74.9202 26.9495V32.5H72.8207V26.9495C72.8207 26.4168 72.6988 26.006 72.4552 25.717C72.2115 25.4223 71.8403 25.275 71.3417 25.275C70.979 25.275 70.639 25.3572 70.3217 25.5215C70.0043 25.6858 69.704 25.9097 69.4207 26.193V32.5H67.3212V23.779H68.6047C68.8767 23.779 69.0552 23.9065 69.1402 24.1615L69.2847 24.85Z" fill="white"/>
<path d="M94 32.7143L110 25.8571L94 19V24.3333L105.429 25.8571L94 27.381V32.7143Z" fill="white"/>
</svg>
