<svg width="140" height="129" viewBox="0 0 140 129" fill="none" xmlns="http://www.w3.org/2000/svg">
<path d="M93.1434 53.7437C92.3779 53.481 91.6059 53.2377 90.8281 53.014C90.9587 52.4801 91.079 51.9527 91.1858 51.4345C92.9386 42.9259 91.7927 36.0712 87.8788 33.8143C84.1262 31.6506 77.9891 33.9067 71.7911 39.3009C71.1802 39.8334 70.5829 40.3813 69.9998 40.9441C69.6094 40.5699 69.2121 40.2029 68.8081 39.8434C62.3122 34.0759 55.8011 31.645 51.8914 33.9084C48.1422 36.0787 47.032 42.5227 48.61 50.5865C48.767 51.3851 48.9443 52.1797 49.1417 52.9693C48.22 53.2312 47.3307 53.5099 46.4796 53.8066C38.8636 56.462 34 60.6231 34 64.9394C34 69.3973 39.2213 73.8687 47.1537 76.58C47.7968 76.7989 48.4452 77.0017 49.0984 77.1883C48.8862 78.0388 48.6979 78.895 48.5336 79.756C47.0292 87.6799 48.204 93.9715 51.9431 96.1281C55.805 98.3552 62.2869 96.0663 68.5982 90.5491C69.11 90.1005 69.6105 89.6393 70.0992 89.1657C70.7308 89.7751 71.3792 90.3667 72.0437 90.9399C78.1574 96.2006 84.1953 98.3249 87.9308 96.1624C91.7891 93.9288 93.0431 87.1699 91.4151 78.9467C91.2868 78.3025 91.143 77.6615 90.9837 77.0242C91.4389 76.8893 91.8857 76.7505 92.3213 76.6061C100.568 73.874 105.933 69.4569 105.933 64.9394C105.933 60.6074 100.912 56.4181 93.1434 53.7437ZM91.3549 73.6894C90.9615 73.8195 90.558 73.9451 90.1467 74.0674C89.2363 71.1852 88.0078 68.1208 86.5042 64.9543C87.9389 61.8634 89.1202 58.838 90.0051 55.9747C90.741 56.1877 91.455 56.4122 92.1434 56.6491C98.8 58.9409 102.86 62.3288 102.86 64.9394C102.86 67.7201 98.4752 71.33 91.3549 73.6894ZM88.4006 79.5436C89.1205 83.1796 89.2231 86.4671 88.7462 89.0373C88.318 91.3468 87.4565 92.8863 86.391 93.5031C84.1242 94.8153 79.2763 93.1097 74.048 88.6105C73.4299 88.0776 72.8268 87.5276 72.2392 86.9611C74.2663 84.7444 76.292 82.1674 78.269 79.3053C81.7465 78.9967 85.0318 78.4921 88.0112 77.8034C88.1578 78.3954 88.2882 78.976 88.4006 79.5436ZM58.5236 93.2763C56.3088 94.0583 54.5448 94.0808 53.4784 93.466C51.2095 92.1574 50.2662 87.1055 51.5528 80.3292C51.7058 79.5285 51.8809 78.7321 52.078 77.9411C55.0244 78.593 58.2859 79.0617 61.7716 79.3443C63.7621 82.1449 65.8462 84.7191 67.9466 86.9732C67.5002 87.4051 67.0433 87.826 66.5762 88.2354C63.7851 90.6749 60.9884 92.4058 58.5236 93.2763ZM48.1478 73.6723C44.6402 72.4733 41.7435 70.9152 39.758 69.215C37.9737 67.6872 37.0732 66.1702 37.0732 64.9394C37.0732 62.32 40.9781 58.9791 47.4911 56.7084C48.2816 56.433 49.1088 56.1731 49.9672 55.9292C50.8675 58.8571 52.0482 61.9185 53.4731 65.0142C52.0297 68.1556 50.8321 71.2659 49.9231 74.2284C49.3269 74.0576 48.7349 73.8722 48.1478 73.6723ZM51.6259 49.9961C50.274 43.0875 51.1718 37.876 53.4312 36.568C55.8376 35.1748 61.159 37.1611 66.7678 42.1414C67.1336 42.4669 67.4934 42.799 67.8471 43.1375C65.7571 45.3817 63.6921 47.9368 61.7193 50.7208C58.3362 51.0344 55.0978 51.5379 52.1204 52.2126C51.937 51.4781 51.7721 50.7392 51.6259 49.9964V49.9961ZM82.6547 57.6581C81.9514 56.4434 81.2221 55.244 80.4672 54.0606C82.7623 54.3509 84.9613 54.7361 87.0263 55.2071C86.4064 57.1942 85.6337 59.2716 84.7242 61.4015C84.0593 60.1401 83.3693 58.892 82.6547 57.6581ZM70.0012 45.3337C71.4185 46.8693 72.838 48.5836 74.2343 50.4438C71.4019 50.31 68.5648 50.3094 65.7324 50.4421C67.13 48.5991 68.5617 46.887 70.0012 45.3337ZM57.2665 57.6792C56.5607 58.9032 55.8836 60.1434 55.2358 61.399C54.3411 59.2766 53.5754 57.1897 52.9502 55.1745C55.0025 54.7154 57.1912 54.3399 59.4717 54.055C58.7083 55.2456 57.9731 56.4539 57.2665 57.6789V57.6792ZM59.5371 76.0424C57.181 75.7794 54.9595 75.4234 52.9078 74.9766C53.5428 72.9254 54.3253 70.7941 55.2394 68.6263C55.8898 69.8828 56.5697 71.1238 57.2785 72.3483C58.0074 73.6071 58.7622 74.8401 59.5371 76.0424ZM70.086 84.7615C68.6294 83.1902 67.1767 81.4518 65.758 79.5821C67.1354 79.636 68.5395 79.6635 69.9666 79.6635C71.4328 79.6635 72.8821 79.6307 74.3087 79.5672C72.908 81.4706 71.4938 83.2116 70.086 84.7615ZM84.7531 68.5156C85.7146 70.7073 86.525 72.8273 87.1685 74.8434C85.083 75.3194 82.8311 75.7027 80.4585 75.9874C81.2188 74.7821 81.955 73.5618 82.6668 72.3272C83.3904 71.0723 84.086 69.8014 84.7531 68.5156ZM80.0049 70.7919C78.9153 72.6847 77.7644 74.5416 76.5541 76.3597C74.3617 76.5149 72.1645 76.5921 69.9666 76.5909C67.728 76.5909 65.5506 76.5212 63.4538 76.3852C62.2119 74.5714 61.0391 72.7112 59.9378 70.8087H59.9381C58.842 68.9163 57.8182 66.9829 56.8689 65.0128C57.8158 63.0422 58.8365 61.1079 59.9288 59.214L59.9286 59.2143C61.0205 57.3199 62.184 55.4677 63.4165 53.6616C65.5556 53.4998 67.7493 53.4155 69.9663 53.4155H69.9666C72.1937 53.4155 74.3902 53.5006 76.5288 53.6636C77.7489 55.467 78.9049 57.3128 79.9948 59.1977C81.0908 61.0874 82.125 63.0123 83.0958 64.9692C82.135 66.9462 81.104 68.8883 80.0049 70.7919ZM86.3441 36.4763C88.7527 37.8656 89.6895 43.4676 88.1761 50.8141C88.0794 51.2828 87.971 51.7602 87.853 52.2443C84.8683 51.5553 81.6277 51.0431 78.2347 50.7247C76.2582 47.9101 74.2101 45.3511 72.1541 43.1358C72.6929 42.6164 73.2446 42.1104 73.8086 41.6184C79.1193 36.997 84.0827 35.1723 86.3441 36.4763ZM69.9666 58.516C73.5141 58.516 76.39 61.3919 76.39 64.9394C76.39 68.4869 73.5141 71.3628 69.9666 71.3628C66.4191 71.3628 63.5432 68.4869 63.5432 64.9394C63.5432 61.3919 66.4191 58.516 69.9666 58.516Z" fill="white"/>
</svg>
