<svg width="12" height="40" viewBox="0 0 12 40" fill="none" xmlns="http://www.w3.org/2000/svg">
<path d="M5.46551 34.7038C5.46551 35.8392 3.83645 37.4612 2.7081 37.4612L6.12571e-05 37.4612L0.507818 40L0.853376 40L2.7081 40C5.62771 40 8.00429 37.6234 8.00429 34.7038L8.00429 24.598C8.00429 22.9619 9.33716 21.622 10.9803 21.622L11.5586 21.622L11.5586 18.3851L10.9733 18.3851L10.9733 18.378C9.3301 18.378 7.99724 17.0451 7.99724 15.402L7.99724 5.2962C7.99724 2.37659 5.62066 -5.19111e-07 2.70105 -7.74351e-07L0.902744 -9.31564e-07L6.43101e-05 2.53879L2.70105 2.53879C3.8294 2.53879 5.45846 4.16785 5.45846 5.2962L5.45846 15.402C5.45846 17.2214 6.24125 18.8575 7.48948 19.993C6.24125 21.1284 5.45845 22.7715 5.45845 24.5839L5.45845 34.7038L5.46551 34.7038Z" fill="#E8EAEE"/>
</svg>
