<svg width="24" height="24" viewBox="0 0 22 22" fill="none" xmlns="http://www.w3.org/2000/svg">
<path d="M10.9906 0.78827C5.19453 0.785926 0.5 5.47811 0.5 11.2695C0.5 15.8492 3.43672 19.7422 7.52656 21.1718C8.07734 21.3101 7.99297 20.9187 7.99297 20.6515V18.8351C4.8125 19.2078 4.68359 17.1031 4.47031 16.7515C4.03906 16.0156 3.01953 15.8281 3.32422 15.4765C4.04844 15.1039 4.78672 15.5703 5.64219 16.8336C6.26094 17.75 7.46797 17.5953 8.07969 17.4429C8.21328 16.8922 8.49922 16.4 8.89297 16.0179C5.59766 15.4273 4.22422 13.4164 4.22422 11.0258C4.22422 9.8656 4.60625 8.7992 5.35625 7.93904C4.87812 6.52108 5.40078 5.30701 5.47109 5.12655C6.83281 5.00467 8.24844 6.10155 8.35859 6.18826C9.13203 5.97967 10.0156 5.86951 11.0047 5.86951C11.9984 5.86951 12.8844 5.98436 13.6648 6.19529C13.9297 5.99373 15.2422 5.05155 16.5078 5.16639C16.5758 5.34686 17.0867 6.53279 16.6367 7.93201C17.3961 8.79451 17.7828 9.87029 17.7828 11.0328C17.7828 13.4281 16.4 15.4414 13.0953 16.0226C13.3784 16.301 13.6031 16.633 13.7564 16.9992C13.9098 17.3654 13.9886 17.7584 13.9883 18.1554V20.7922C14.007 21.0031 13.9883 21.2117 14.3398 21.2117C18.4906 19.8125 21.4789 15.8914 21.4789 11.2719C21.4789 5.47811 16.782 0.78827 10.9906 0.78827Z" fill="#211F1F"/>
</svg>
