<svg width="24" height="25" viewBox="0 0 24 25" fill="none" xmlns="http://www.w3.org/2000/svg">
<path d="M20 13C20 10.8783 19.1571 8.84344 17.6569 7.34315C16.1566 5.84285 14.1217 5 12 5C9.87827 5 7.84344 5.84285 6.34315 7.34315C4.84285 8.84344 4 10.8783 4 13C4 15.1217 4.84285 17.1566 6.34315 18.6569C7.84344 20.1571 9.87827 21 12 21C14.1217 21 16.1566 20.1571 17.6569 18.6569C19.1571 17.1566 20 15.1217 20 13ZM22 13C22 15.6522 20.9464 18.1957 19.0711 20.0711C17.1957 21.9464 14.6522 23 12 23C10.6868 23 9.38642 22.7413 8.17317 22.2388C6.95991 21.7362 5.85752 20.9997 4.92893 20.0711C3.05357 18.1957 2 15.6522 2 13C2 10.3478 3.05357 7.8043 4.92893 5.92893C6.8043 4.05357 9.34784 3 12 3C13.3132 3 14.6136 3.25866 15.8268 3.7612C17.0401 4.26375 18.1425 5.00035 19.0711 5.92893C19.9997 6.85752 20.7362 7.95991 21.2388 9.17317C21.7413 10.3864 22 11.6868 22 13ZM15.5 9C16.3 9 17 9.7 17 10.5C17 11.3 16.3 12 15.5 12C14.7 12 14 11.3 14 10.5C14 9.7 14.7 9 15.5 9ZM10 10.5C10 11.3 9.3 12 8.5 12C7.7 12 7 11.3 7 10.5C7 9.7 7.7 9 8.5 9C9.3 9 10 9.7 10 10.5ZM12 15C13.75 15 15.29 15.72 16.19 16.81L14.77 18.23C14.32 17.5 13.25 17 12 17C10.75 17 9.68 17.5 9.23 18.23L7.81 16.81C8.71 15.72 10.25 15 12 15Z" fill="#D81414"/>
</svg>
